<?xml version="1.0" encoding="UTF-8"?>
<!DOCTYPE svg PUBLIC "-//W3C//DTD SVG 1.1//EN" "http://www.w3.org/Graphics/SVG/1.1/DTD/svg11.dtd">
<svg xmlns="http://www.w3.org/2000/svg" version="1.1" width="512px" height="512px" style="shape-rendering:geometricPrecision; text-rendering:geometricPrecision; image-rendering:optimizeQuality; fill-rule:evenodd; clip-rule:evenodd" xmlns:xlink="http://www.w3.org/1999/xlink">
<g><path style="opacity:0.968" fill="#da7a26" d="M 244.5,88.5 C 260.235,88.1214 275.902,88.9548 291.5,91C 299.499,91.8853 306.666,94.7186 313,99.5C 316.295,107.411 313.795,112.578 305.5,115C 297.454,122.209 292.121,131.042 289.5,141.5C 329.156,142.831 367.822,149.665 405.5,162C 414.815,165.991 423.815,170.491 432.5,175.5C 465.308,168.486 488.474,180.153 502,210.5C 504.137,218.041 501.97,223.874 495.5,228C 485.239,229.26 474.906,229.927 464.5,230C 450.856,231.909 439.022,237.409 429,246.5C 427.149,271.94 422.816,296.94 416,321.5C 411.425,335.93 404.592,349.096 395.5,361C 404.594,363.44 409.26,369.44 409.5,379C 407.612,391.56 400.612,399.893 388.5,404C 318.634,426.546 248.301,428.213 177.5,409C 137.615,395.781 111.115,369.281 98,329.5C 89.9425,301.047 85.4425,272.047 84.5,242.5C 65.4084,232.581 45.0751,228.081 23.5,229C 12.2881,225.761 7.45478,218.261 9,206.5C 12.931,189.9 23.0977,179.067 39.5,174C 55.6762,170.68 71.8429,170.847 88,174.5C 107.135,163.34 127.635,155.507 149.5,151C 176.895,145.289 204.561,141.623 232.5,140C 224.049,128.215 214.216,117.715 203,108.5C 201.435,102.799 203.268,98.6326 208.5,96C 220.244,91.6869 232.244,89.1869 244.5,88.5 Z M 252.5,100.5 C 267.655,100.577 282.655,102.077 297.5,105C 291.925,106.515 286.258,107.515 280.5,108C 266.167,108.667 251.833,108.667 237.5,108C 231.426,107.432 225.426,106.432 219.5,105C 230.502,102.471 241.502,100.971 252.5,100.5 Z M 284.5,120.5 C 277.728,130.858 275.228,142.192 277,154.5C 280.645,158.516 284.145,158.35 287.5,154C 293.518,153.668 299.518,154.001 305.5,155C 309.327,158.095 309.327,161.095 305.5,164C 294.38,169.03 282.713,172.03 270.5,173C 253.742,174.121 237.076,173.454 220.5,171C 215.029,169.864 212.029,166.53 211.5,161C 211.99,158.497 213.323,156.497 215.5,155C 220.863,154.736 226.197,154.236 231.5,153.5C 233.706,155.199 236.206,156.199 239,156.5C 241.034,156.646 242.701,155.98 244,154.5C 246.701,148.608 247.034,142.608 245,136.5C 242.21,131.083 239.043,125.916 235.5,121C 251.828,121.785 268.161,121.618 284.5,120.5 Z M 198.5,156.5 C 197.512,165.355 200.512,172.522 207.5,178C 213.102,181.201 219.102,183.201 225.5,184C 253.708,187.715 281.375,185.382 308.5,177C 318.028,173.448 322.028,166.615 320.5,156.5C 354.414,158.562 386.748,166.729 417.5,181C 424.614,184.447 430.114,189.614 434,196.5C 435.315,202.204 433.982,207.204 430,211.5C 417.755,221.371 403.922,228.204 388.5,232C 312.689,251.004 236.356,253.337 159.5,239C 137.306,234.492 116.306,226.825 96.5,216C 91.0157,212.032 87.349,206.866 85.5,200.5C 87.0067,194.479 90.34,189.646 95.5,186C 112.41,175.358 130.744,168.024 150.5,164C 166.323,160.307 182.323,157.807 198.5,156.5 Z M 55.5,183.5 C 63.2323,183.711 70.8989,184.544 78.5,186C 72.4697,194.82 71.9697,203.987 77,213.5C 79.6667,216.833 82.3333,220.167 85,223.5C 85.6667,225.5 85.6667,227.5 85,229.5C 67.602,220.571 49.102,216.737 29.5,218C 21.2352,216.94 18.7352,212.44 22,204.5C 29.2818,191.277 40.4485,184.277 55.5,183.5 Z M 443.5,186.5 C 465.068,184.71 480.568,193.71 490,213.5C 490.667,214.5 490.667,215.5 490,216.5C 485.013,218.823 479.846,219.156 474.5,217.5C 459.585,217.729 445.585,221.395 432.5,228.5C 431.479,227.998 431.312,227.332 432,226.5C 441.294,220.245 446.794,211.578 448.5,200.5C 447.995,195.31 446.328,190.644 443.5,186.5 Z M 98.5,232.5 C 109.201,239.238 120.868,243.738 133.5,246C 206.667,263.096 280.667,267.929 355.5,260.5C 375.11,260.701 394.443,263.035 413.5,267.5C 412.532,278.639 410.699,289.639 408,300.5C 372.453,320.263 334.286,330.429 293.5,331C 265.316,333.142 237.149,332.975 209,330.5C 182.135,328.076 156.635,320.91 132.5,309C 122.187,303.36 113.021,296.194 105,287.5C 102.305,269.208 100.138,250.875 98.5,232.5 Z M 110.5,309.5 C 134.401,325.639 160.734,335.806 189.5,340C 236.485,345.897 283.485,345.897 330.5,340C 356.013,336.717 380.179,329.217 403,317.5C 394.657,349.85 374.49,371.35 342.5,382C 286.823,399.978 231.156,399.978 175.5,382C 141.332,369 119.665,344.834 110.5,309.5 Z"/></g>
<g><path style="opacity:0.936" fill="#da7a26" d="M 400.5,91.5 C 406.873,91.3677 409.373,94.3677 408,100.5C 401.848,107.827 396.682,115.827 392.5,124.5C 383.454,127.957 380.288,124.957 383,115.5C 387.569,106.453 393.402,98.453 400.5,91.5 Z"/></g>
<g><path style="opacity:0.948" fill="#da7a26" d="M 361.5,92.5 C 365.684,91.7036 368.85,93.037 371,96.5C 371.667,103.167 371.667,109.833 371,116.5C 368.833,119.287 365.999,120.12 362.5,119C 361.299,118.097 360.465,116.931 360,115.5C 359.764,109.962 359.264,104.462 358.5,99C 359.03,96.5568 360.03,94.3901 361.5,92.5 Z"/></g>
<g><path style="opacity:0.952" fill="#da7a26" d="M 441.5,110.5 C 446.284,110.108 449.284,112.275 450.5,117C 450.01,118.982 449.01,120.649 447.5,122C 434.167,128 420.833,134 407.5,140C 398.972,140.638 396.638,137.138 400.5,129.5C 414.354,123.338 428.02,117.005 441.5,110.5 Z"/></g>
<g><path style="opacity:0.94" fill="#d97b27" d="M 340.5,193.5 C 345.765,192.571 350.265,193.904 354,197.5C 356.367,201.999 355.533,205.832 351.5,209C 343.121,212.768 337.455,210.435 334.5,202C 335.187,198.16 337.187,195.327 340.5,193.5 Z"/></g>
</svg>
